<svg xmlns="http://www.w3.org/2000/svg" width="512" height="512" viewBox="0 0 512 512">
  <g fill="none" fill-rule="evenodd">
    <rect width="366" height="249" x="69" y="121" fill="#FFFFFF"/>
    <path fill="#3D89C4" d="M256,512 C115.2,512 0,396.8 0,256 C0,115.2 115.2,0 256,0 C396.8,0 512,115.2 512,256 C512,396.8 396.8,512 256,512 L256,512 Z M140.8,185.6 L115.2,243.2 C153.6,259.2 179.2,297.6 179.2,342.4 L243.2,342.4 C243.2,272 201.6,211.2 140.8,185.6 L140.8,185.6 Z M230.4,153.6 L192,201.6 C230.4,236.8 256,284.8 256,342.4 L256,342.4 L316.8,342.4 L316.8,342.4 C320,265.6 284.8,198.4 230.4,153.6 L230.4,153.6 Z M332.8,150.4 L281.6,185.6 C313.6,230.4 332.8,281.6 332.8,339.2 L393.6,339.2 L393.6,339.2 C396.8,268.8 371.2,204.8 332.8,150.4 L332.8,150.4 Z"/>
  </g>
</svg>
