<!-- Generator: Adobe Illustrator 24.2.1, SVG Export Plug-In  -->
<svg version="1.1" xmlns="http://www.w3.org/2000/svg" xmlns:xlink="http://www.w3.org/1999/xlink" x="0px" y="0px" width="544.2px"
     height="544.2px" viewBox="0 0 544.2 544.2" style="overflow:visible;enable-background:new 0 0 544.2 544.2;"
     xml:space="preserve">
<defs>
</defs>
<g>
    <path style="fill:#3D89C4;" d="M272.1,0C2.1,0,0,121.8,0,272.1s2.1,272.1,272.1,272.1s272.1-121.8,272.1-272.1S542.1,0,272.1,0z"/>
    <g>
        <path style="fill-rule:evenodd;clip-rule:evenodd;fill:#FFFFFF;" d="M131.1,196.7l-31.7,71.4c47.6,19.8,79.4,67.4,79.4,123h79.4
            C258.1,303.9,206.5,228.5,131.1,196.7L131.1,196.7z M242.2,157.1l-47.6,59.5c47.6,43.6,79.4,103.2,79.4,174.6l0,0h75.4l0,0
            C353.3,295.9,309.6,212.6,242.2,157.1L242.2,157.1z M369.1,153.1l-63.5,43.6c39.7,55.5,63.5,119,63.5,190.4h75.4l0,0
            C448.5,299.9,416.8,220.5,369.1,153.1L369.1,153.1z"/>
    </g>
</g>
</svg>
